<mxfile host="Electron" modified="2024-05-02T19:40:06.177Z" agent="Mozilla/5.0 (Windows NT 10.0; Win64; x64) AppleWebKit/537.36 (KHTML, like Gecko) draw.io/24.2.5 Chrome/120.0.6099.109 Electron/28.1.0 Safari/537.36" etag="K89bpV1ZLXxeZ0jBvHiz" version="24.2.5" type="device">
  <diagram name="Page-1" id="c4acf3e9-155e-7222-9cf6-157b1a14988f">
    <mxGraphModel dx="1219" dy="769" grid="1" gridSize="10" guides="1" tooltips="1" connect="1" arrows="1" fold="1" page="1" pageScale="1" pageWidth="850" pageHeight="1100" background="none" math="0" shadow="0">
      <root>
        <mxCell id="0" />
        <mxCell id="1" parent="0" />
        <mxCell id="17acba5748e5396b-1" value="&lt;div&gt;&lt;br/&gt;&lt;/div&gt;" style="shape=umlFrame;whiteSpace=wrap;html=1;rounded=0;shadow=0;comic=0;labelBackgroundColor=none;strokeWidth=1;fontFamily=Verdana;fontSize=10;align=center;" parent="1" vertex="1">
          <mxGeometry x="15" y="30" width="820" height="1060" as="geometry" />
        </mxCell>
        <mxCell id="1qwFlzTLrPcSKQkNcB_V-1" value="User" style="swimlane;fontStyle=0;childLayout=stackLayout;horizontal=1;startSize=20;fillColor=none;horizontalStack=0;resizeParent=1;resizeParentMax=0;resizeLast=0;collapsible=1;marginBottom=0;whiteSpace=wrap;html=1;" parent="1" vertex="1">
          <mxGeometry x="70" y="70" width="300" height="540" as="geometry" />
        </mxCell>
        <mxCell id="1qwFlzTLrPcSKQkNcB_V-2" value="- userName: String" style="text;strokeColor=none;fillColor=none;align=left;verticalAlign=top;spacingLeft=4;spacingRight=4;overflow=hidden;rotatable=0;points=[[0,0.5],[1,0.5]];portConstraint=eastwest;whiteSpace=wrap;html=1;" parent="1qwFlzTLrPcSKQkNcB_V-1" vertex="1">
          <mxGeometry y="20" width="300" height="26" as="geometry" />
        </mxCell>
        <mxCell id="1qwFlzTLrPcSKQkNcB_V-3" value="- nickName: String" style="text;strokeColor=none;fillColor=none;align=left;verticalAlign=top;spacingLeft=4;spacingRight=4;overflow=hidden;rotatable=0;points=[[0,0.5],[1,0.5]];portConstraint=eastwest;whiteSpace=wrap;html=1;" parent="1qwFlzTLrPcSKQkNcB_V-1" vertex="1">
          <mxGeometry y="46" width="300" height="26" as="geometry" />
        </mxCell>
        <mxCell id="1qwFlzTLrPcSKQkNcB_V-4" value="- password: String" style="text;strokeColor=none;fillColor=none;align=left;verticalAlign=top;spacingLeft=4;spacingRight=4;overflow=hidden;rotatable=0;points=[[0,0.5],[1,0.5]];portConstraint=eastwest;whiteSpace=wrap;html=1;" parent="1qwFlzTLrPcSKQkNcB_V-1" vertex="1">
          <mxGeometry y="72" width="300" height="26" as="geometry" />
        </mxCell>
        <mxCell id="1qwFlzTLrPcSKQkNcB_V-6" value="- email: String" style="text;strokeColor=none;fillColor=none;align=left;verticalAlign=top;spacingLeft=4;spacingRight=4;overflow=hidden;rotatable=0;points=[[0,0.5],[1,0.5]];portConstraint=eastwest;whiteSpace=wrap;html=1;" parent="1qwFlzTLrPcSKQkNcB_V-1" vertex="1">
          <mxGeometry y="98" width="300" height="26" as="geometry" />
        </mxCell>
        <mxCell id="1qwFlzTLrPcSKQkNcB_V-8" value="- answerOfQuestions: Arraylist&amp;lt;Strign&amp;gt;" style="text;strokeColor=none;fillColor=none;align=left;verticalAlign=top;spacingLeft=4;spacingRight=4;overflow=hidden;rotatable=0;points=[[0,0.5],[1,0.5]];portConstraint=eastwest;whiteSpace=wrap;html=1;" parent="1qwFlzTLrPcSKQkNcB_V-1" vertex="1">
          <mxGeometry y="124" width="300" height="26" as="geometry" />
        </mxCell>
        <mxCell id="1qwFlzTLrPcSKQkNcB_V-7" value="- profile: Profile" style="text;strokeColor=none;fillColor=none;align=left;verticalAlign=top;spacingLeft=4;spacingRight=4;overflow=hidden;rotatable=0;points=[[0,0.5],[1,0.5]];portConstraint=eastwest;whiteSpace=wrap;html=1;" parent="1qwFlzTLrPcSKQkNcB_V-1" vertex="1">
          <mxGeometry y="150" width="300" height="26" as="geometry" />
        </mxCell>
        <mxCell id="1qwFlzTLrPcSKQkNcB_V-9" value="- allGameHistory: Arraylist&amp;lt;GameHistory&amp;gt;" style="text;strokeColor=none;fillColor=none;align=left;verticalAlign=top;spacingLeft=4;spacingRight=4;overflow=hidden;rotatable=0;points=[[0,0.5],[1,0.5]];portConstraint=eastwest;whiteSpace=wrap;html=1;" parent="1qwFlzTLrPcSKQkNcB_V-1" vertex="1">
          <mxGeometry y="176" width="300" height="26" as="geometry" />
        </mxCell>
        <mxCell id="1qwFlzTLrPcSKQkNcB_V-11" value="- allUsers: Arraylist&amp;lt;Users&amp;gt;" style="text;strokeColor=none;fillColor=none;align=left;verticalAlign=top;spacingLeft=4;spacingRight=4;overflow=hidden;rotatable=0;points=[[0,0.5],[1,0.5]];portConstraint=eastwest;whiteSpace=wrap;html=1;" parent="1qwFlzTLrPcSKQkNcB_V-1" vertex="1">
          <mxGeometry y="202" width="300" height="26" as="geometry" />
        </mxCell>
        <mxCell id="1qwFlzTLrPcSKQkNcB_V-10" value="- deck: Deck" style="text;strokeColor=none;fillColor=none;align=left;verticalAlign=top;spacingLeft=4;spacingRight=4;overflow=hidden;rotatable=0;points=[[0,0.5],[1,0.5]];portConstraint=eastwest;whiteSpace=wrap;html=1;" parent="1qwFlzTLrPcSKQkNcB_V-1" vertex="1">
          <mxGeometry y="228" width="300" height="26" as="geometry" />
        </mxCell>
        <mxCell id="1qwFlzTLrPcSKQkNcB_V-14" value="+ User: constructor" style="text;strokeColor=none;fillColor=none;align=left;verticalAlign=top;spacingLeft=4;spacingRight=4;overflow=hidden;rotatable=0;points=[[0,0.5],[1,0.5]];portConstraint=eastwest;whiteSpace=wrap;html=1;" parent="1qwFlzTLrPcSKQkNcB_V-1" vertex="1">
          <mxGeometry y="254" width="300" height="26" as="geometry" />
        </mxCell>
        <mxCell id="1qwFlzTLrPcSKQkNcB_V-13" value="+ setPassword(String): void" style="text;strokeColor=none;fillColor=none;align=left;verticalAlign=top;spacingLeft=4;spacingRight=4;overflow=hidden;rotatable=0;points=[[0,0.5],[1,0.5]];portConstraint=eastwest;whiteSpace=wrap;html=1;" parent="1qwFlzTLrPcSKQkNcB_V-1" vertex="1">
          <mxGeometry y="280" width="300" height="26" as="geometry" />
        </mxCell>
        <mxCell id="1qwFlzTLrPcSKQkNcB_V-16" value="+ getUserName(void): String" style="text;strokeColor=none;fillColor=none;align=left;verticalAlign=top;spacingLeft=4;spacingRight=4;overflow=hidden;rotatable=0;points=[[0,0.5],[1,0.5]];portConstraint=eastwest;whiteSpace=wrap;html=1;" parent="1qwFlzTLrPcSKQkNcB_V-1" vertex="1">
          <mxGeometry y="306" width="300" height="26" as="geometry" />
        </mxCell>
        <mxCell id="1qwFlzTLrPcSKQkNcB_V-15" value="+ getNickName(void): String" style="text;strokeColor=none;fillColor=none;align=left;verticalAlign=top;spacingLeft=4;spacingRight=4;overflow=hidden;rotatable=0;points=[[0,0.5],[1,0.5]];portConstraint=eastwest;whiteSpace=wrap;html=1;" parent="1qwFlzTLrPcSKQkNcB_V-1" vertex="1">
          <mxGeometry y="332" width="300" height="26" as="geometry" />
        </mxCell>
        <mxCell id="1qwFlzTLrPcSKQkNcB_V-17" value="+ getPassword(void): String" style="text;strokeColor=none;fillColor=none;align=left;verticalAlign=top;spacingLeft=4;spacingRight=4;overflow=hidden;rotatable=0;points=[[0,0.5],[1,0.5]];portConstraint=eastwest;whiteSpace=wrap;html=1;" parent="1qwFlzTLrPcSKQkNcB_V-1" vertex="1">
          <mxGeometry y="358" width="300" height="26" as="geometry" />
        </mxCell>
        <mxCell id="1qwFlzTLrPcSKQkNcB_V-18" value="+ getEmail(void): String" style="text;strokeColor=none;fillColor=none;align=left;verticalAlign=top;spacingLeft=4;spacingRight=4;overflow=hidden;rotatable=0;points=[[0,0.5],[1,0.5]];portConstraint=eastwest;whiteSpace=wrap;html=1;" parent="1qwFlzTLrPcSKQkNcB_V-1" vertex="1">
          <mxGeometry y="384" width="300" height="26" as="geometry" />
        </mxCell>
        <mxCell id="1qwFlzTLrPcSKQkNcB_V-20" value="+ getProfile(void): Profile" style="text;strokeColor=none;fillColor=none;align=left;verticalAlign=top;spacingLeft=4;spacingRight=4;overflow=hidden;rotatable=0;points=[[0,0.5],[1,0.5]];portConstraint=eastwest;whiteSpace=wrap;html=1;" parent="1qwFlzTLrPcSKQkNcB_V-1" vertex="1">
          <mxGeometry y="410" width="300" height="26" as="geometry" />
        </mxCell>
        <mxCell id="1qwFlzTLrPcSKQkNcB_V-19" value="+ getAllGameHistory(void): Arraylist&amp;lt;GameHistory&amp;gt;" style="text;strokeColor=none;fillColor=none;align=left;verticalAlign=top;spacingLeft=4;spacingRight=4;overflow=hidden;rotatable=0;points=[[0,0.5],[1,0.5]];portConstraint=eastwest;whiteSpace=wrap;html=1;" parent="1qwFlzTLrPcSKQkNcB_V-1" vertex="1">
          <mxGeometry y="436" width="300" height="26" as="geometry" />
        </mxCell>
        <mxCell id="1qwFlzTLrPcSKQkNcB_V-21" value="+ getAllUser(void): Arraylist&amp;lt;User&amp;gt;" style="text;strokeColor=none;fillColor=none;align=left;verticalAlign=top;spacingLeft=4;spacingRight=4;overflow=hidden;rotatable=0;points=[[0,0.5],[1,0.5]];portConstraint=eastwest;whiteSpace=wrap;html=1;" parent="1qwFlzTLrPcSKQkNcB_V-1" vertex="1">
          <mxGeometry y="462" width="300" height="26" as="geometry" />
        </mxCell>
        <mxCell id="1qwFlzTLrPcSKQkNcB_V-22" value="+ getDeck(void): Deck" style="text;strokeColor=none;fillColor=none;align=left;verticalAlign=top;spacingLeft=4;spacingRight=4;overflow=hidden;rotatable=0;points=[[0,0.5],[1,0.5]];portConstraint=eastwest;whiteSpace=wrap;html=1;" parent="1qwFlzTLrPcSKQkNcB_V-1" vertex="1">
          <mxGeometry y="488" width="300" height="26" as="geometry" />
        </mxCell>
        <mxCell id="1qwFlzTLrPcSKQkNcB_V-43" value="+ getUserWithUserName(String): User?" style="text;strokeColor=none;fillColor=none;align=left;verticalAlign=top;spacingLeft=4;spacingRight=4;overflow=hidden;rotatable=0;points=[[0,0.5],[1,0.5]];portConstraint=eastwest;whiteSpace=wrap;html=1;" parent="1qwFlzTLrPcSKQkNcB_V-1" vertex="1">
          <mxGeometry y="514" width="300" height="26" as="geometry" />
        </mxCell>
        <mxCell id="1qwFlzTLrPcSKQkNcB_V-23" value="GameHistory" style="swimlane;fontStyle=0;childLayout=stackLayout;horizontal=1;startSize=20;fillColor=none;horizontalStack=0;resizeParent=1;resizeParentMax=0;resizeLast=0;collapsible=1;marginBottom=0;whiteSpace=wrap;html=1;" parent="1" vertex="1">
          <mxGeometry x="440" y="70" width="300" height="410" as="geometry" />
        </mxCell>
        <mxCell id="1qwFlzTLrPcSKQkNcB_V-24" value="- opponentUserName: String" style="text;strokeColor=none;fillColor=none;align=left;verticalAlign=top;spacingLeft=4;spacingRight=4;overflow=hidden;rotatable=0;points=[[0,0.5],[1,0.5]];portConstraint=eastwest;whiteSpace=wrap;html=1;" parent="1qwFlzTLrPcSKQkNcB_V-23" vertex="1">
          <mxGeometry y="20" width="300" height="26" as="geometry" />
        </mxCell>
        <mxCell id="1qwFlzTLrPcSKQkNcB_V-25" value="- dateOfGAme: Date" style="text;strokeColor=none;fillColor=none;align=left;verticalAlign=top;spacingLeft=4;spacingRight=4;overflow=hidden;rotatable=0;points=[[0,0.5],[1,0.5]];portConstraint=eastwest;whiteSpace=wrap;html=1;" parent="1qwFlzTLrPcSKQkNcB_V-23" vertex="1">
          <mxGeometry y="46" width="300" height="26" as="geometry" />
        </mxCell>
        <mxCell id="1qwFlzTLrPcSKQkNcB_V-26" value="- opponentScoreRound1: Int" style="text;strokeColor=none;fillColor=none;align=left;verticalAlign=top;spacingLeft=4;spacingRight=4;overflow=hidden;rotatable=0;points=[[0,0.5],[1,0.5]];portConstraint=eastwest;whiteSpace=wrap;html=1;" parent="1qwFlzTLrPcSKQkNcB_V-23" vertex="1">
          <mxGeometry y="72" width="300" height="26" as="geometry" />
        </mxCell>
        <mxCell id="1qwFlzTLrPcSKQkNcB_V-27" value="- opponentScoreRound2: Int" style="text;strokeColor=none;fillColor=none;align=left;verticalAlign=top;spacingLeft=4;spacingRight=4;overflow=hidden;rotatable=0;points=[[0,0.5],[1,0.5]];portConstraint=eastwest;whiteSpace=wrap;html=1;" parent="1qwFlzTLrPcSKQkNcB_V-23" vertex="1">
          <mxGeometry y="98" width="300" height="26" as="geometry" />
        </mxCell>
        <mxCell id="1qwFlzTLrPcSKQkNcB_V-28" value="- opponentScoreRound3: Int" style="text;strokeColor=none;fillColor=none;align=left;verticalAlign=top;spacingLeft=4;spacingRight=4;overflow=hidden;rotatable=0;points=[[0,0.5],[1,0.5]];portConstraint=eastwest;whiteSpace=wrap;html=1;" parent="1qwFlzTLrPcSKQkNcB_V-23" vertex="1">
          <mxGeometry y="124" width="300" height="26" as="geometry" />
        </mxCell>
        <mxCell id="1qwFlzTLrPcSKQkNcB_V-29" value="- userScoreRound1: int" style="text;strokeColor=none;fillColor=none;align=left;verticalAlign=top;spacingLeft=4;spacingRight=4;overflow=hidden;rotatable=0;points=[[0,0.5],[1,0.5]];portConstraint=eastwest;whiteSpace=wrap;html=1;" parent="1qwFlzTLrPcSKQkNcB_V-23" vertex="1">
          <mxGeometry y="150" width="300" height="26" as="geometry" />
        </mxCell>
        <mxCell id="1qwFlzTLrPcSKQkNcB_V-30" value="- userScoreRound2: int" style="text;strokeColor=none;fillColor=none;align=left;verticalAlign=top;spacingLeft=4;spacingRight=4;overflow=hidden;rotatable=0;points=[[0,0.5],[1,0.5]];portConstraint=eastwest;whiteSpace=wrap;html=1;" parent="1qwFlzTLrPcSKQkNcB_V-23" vertex="1">
          <mxGeometry y="176" width="300" height="26" as="geometry" />
        </mxCell>
        <mxCell id="1qwFlzTLrPcSKQkNcB_V-31" value="- userScoreRound3: int" style="text;strokeColor=none;fillColor=none;align=left;verticalAlign=top;spacingLeft=4;spacingRight=4;overflow=hidden;rotatable=0;points=[[0,0.5],[1,0.5]];portConstraint=eastwest;whiteSpace=wrap;html=1;" parent="1qwFlzTLrPcSKQkNcB_V-23" vertex="1">
          <mxGeometry y="202" width="300" height="26" as="geometry" />
        </mxCell>
        <mxCell id="1qwFlzTLrPcSKQkNcB_V-32" value="- deck: Deck" style="text;strokeColor=none;fillColor=none;align=left;verticalAlign=top;spacingLeft=4;spacingRight=4;overflow=hidden;rotatable=0;points=[[0,0.5],[1,0.5]];portConstraint=eastwest;whiteSpace=wrap;html=1;" parent="1qwFlzTLrPcSKQkNcB_V-23" vertex="1">
          <mxGeometry y="228" width="300" height="26" as="geometry" />
        </mxCell>
        <mxCell id="1qwFlzTLrPcSKQkNcB_V-33" value="+ getOpponentUserName(void): String" style="text;strokeColor=none;fillColor=none;align=left;verticalAlign=top;spacingLeft=4;spacingRight=4;overflow=hidden;rotatable=0;points=[[0,0.5],[1,0.5]];portConstraint=eastwest;whiteSpace=wrap;html=1;" parent="1qwFlzTLrPcSKQkNcB_V-23" vertex="1">
          <mxGeometry y="254" width="300" height="26" as="geometry" />
        </mxCell>
        <mxCell id="1qwFlzTLrPcSKQkNcB_V-34" value="+ getDateOfGame(void): Date" style="text;strokeColor=none;fillColor=none;align=left;verticalAlign=top;spacingLeft=4;spacingRight=4;overflow=hidden;rotatable=0;points=[[0,0.5],[1,0.5]];portConstraint=eastwest;whiteSpace=wrap;html=1;" parent="1qwFlzTLrPcSKQkNcB_V-23" vertex="1">
          <mxGeometry y="280" width="300" height="26" as="geometry" />
        </mxCell>
        <mxCell id="1qwFlzTLrPcSKQkNcB_V-35" value="+ getOpponentScoreInRound(int): int" style="text;strokeColor=none;fillColor=none;align=left;verticalAlign=top;spacingLeft=4;spacingRight=4;overflow=hidden;rotatable=0;points=[[0,0.5],[1,0.5]];portConstraint=eastwest;whiteSpace=wrap;html=1;" parent="1qwFlzTLrPcSKQkNcB_V-23" vertex="1">
          <mxGeometry y="306" width="300" height="26" as="geometry" />
        </mxCell>
        <mxCell id="1qwFlzTLrPcSKQkNcB_V-36" value="+ winnerOfThisGame(void): boolean" style="text;strokeColor=none;fillColor=none;align=left;verticalAlign=top;spacingLeft=4;spacingRight=4;overflow=hidden;rotatable=0;points=[[0,0.5],[1,0.5]];portConstraint=eastwest;whiteSpace=wrap;html=1;" parent="1qwFlzTLrPcSKQkNcB_V-23" vertex="1">
          <mxGeometry y="332" width="300" height="26" as="geometry" />
        </mxCell>
        <mxCell id="1qwFlzTLrPcSKQkNcB_V-37" value="+ sumOfScoreOfUser(void): int" style="text;strokeColor=none;fillColor=none;align=left;verticalAlign=top;spacingLeft=4;spacingRight=4;overflow=hidden;rotatable=0;points=[[0,0.5],[1,0.5]];portConstraint=eastwest;whiteSpace=wrap;html=1;" parent="1qwFlzTLrPcSKQkNcB_V-23" vertex="1">
          <mxGeometry y="358" width="300" height="26" as="geometry" />
        </mxCell>
        <mxCell id="1qwFlzTLrPcSKQkNcB_V-38" value="+ sumOfScoreOfOpponent(void): int" style="text;strokeColor=none;fillColor=none;align=left;verticalAlign=top;spacingLeft=4;spacingRight=4;overflow=hidden;rotatable=0;points=[[0,0.5],[1,0.5]];portConstraint=eastwest;whiteSpace=wrap;html=1;" parent="1qwFlzTLrPcSKQkNcB_V-23" vertex="1">
          <mxGeometry y="384" width="300" height="26" as="geometry" />
        </mxCell>
        <mxCell id="1qwFlzTLrPcSKQkNcB_V-45" value="Profile" style="swimlane;fontStyle=0;childLayout=stackLayout;horizontal=1;startSize=20;fillColor=none;horizontalStack=0;resizeParent=1;resizeParentMax=0;resizeLast=0;collapsible=1;marginBottom=0;whiteSpace=wrap;html=1;" parent="1" vertex="1">
          <mxGeometry x="440" y="500" width="300" height="280" as="geometry" />
        </mxCell>
        <mxCell id="1qwFlzTLrPcSKQkNcB_V-46" value="- maxScore: int" style="text;strokeColor=none;fillColor=none;align=left;verticalAlign=top;spacingLeft=4;spacingRight=4;overflow=hidden;rotatable=0;points=[[0,0.5],[1,0.5]];portConstraint=eastwest;whiteSpace=wrap;html=1;" parent="1qwFlzTLrPcSKQkNcB_V-45" vertex="1">
          <mxGeometry y="20" width="300" height="26" as="geometry" />
        </mxCell>
        <mxCell id="1qwFlzTLrPcSKQkNcB_V-47" value="- numberOfTotalGames: int" style="text;strokeColor=none;fillColor=none;align=left;verticalAlign=top;spacingLeft=4;spacingRight=4;overflow=hidden;rotatable=0;points=[[0,0.5],[1,0.5]];portConstraint=eastwest;whiteSpace=wrap;html=1;" parent="1qwFlzTLrPcSKQkNcB_V-45" vertex="1">
          <mxGeometry y="46" width="300" height="26" as="geometry" />
        </mxCell>
        <mxCell id="1qwFlzTLrPcSKQkNcB_V-48" value="- numberOfWins: int" style="text;strokeColor=none;fillColor=none;align=left;verticalAlign=top;spacingLeft=4;spacingRight=4;overflow=hidden;rotatable=0;points=[[0,0.5],[1,0.5]];portConstraint=eastwest;whiteSpace=wrap;html=1;" parent="1qwFlzTLrPcSKQkNcB_V-45" vertex="1">
          <mxGeometry y="72" width="300" height="26" as="geometry" />
        </mxCell>
        <mxCell id="1qwFlzTLrPcSKQkNcB_V-49" value="- numberOfLosses: int" style="text;strokeColor=none;fillColor=none;align=left;verticalAlign=top;spacingLeft=4;spacingRight=4;overflow=hidden;rotatable=0;points=[[0,0.5],[1,0.5]];portConstraint=eastwest;whiteSpace=wrap;html=1;" parent="1qwFlzTLrPcSKQkNcB_V-45" vertex="1">
          <mxGeometry y="98" width="300" height="26" as="geometry" />
        </mxCell>
        <mxCell id="1qwFlzTLrPcSKQkNcB_V-50" value="- numberOfDraws: int" style="text;strokeColor=none;fillColor=none;align=left;verticalAlign=top;spacingLeft=4;spacingRight=4;overflow=hidden;rotatable=0;points=[[0,0.5],[1,0.5]];portConstraint=eastwest;whiteSpace=wrap;html=1;" parent="1qwFlzTLrPcSKQkNcB_V-45" vertex="1">
          <mxGeometry y="124" width="300" height="26" as="geometry" />
        </mxCell>
        <mxCell id="1qwFlzTLrPcSKQkNcB_V-51" value="+ getMaxScore(void): int" style="text;strokeColor=none;fillColor=none;align=left;verticalAlign=top;spacingLeft=4;spacingRight=4;overflow=hidden;rotatable=0;points=[[0,0.5],[1,0.5]];portConstraint=eastwest;whiteSpace=wrap;html=1;" parent="1qwFlzTLrPcSKQkNcB_V-45" vertex="1">
          <mxGeometry y="150" width="300" height="26" as="geometry" />
        </mxCell>
        <mxCell id="1qwFlzTLrPcSKQkNcB_V-52" value="+ getNumberOfTotalGames(void): int" style="text;strokeColor=none;fillColor=none;align=left;verticalAlign=top;spacingLeft=4;spacingRight=4;overflow=hidden;rotatable=0;points=[[0,0.5],[1,0.5]];portConstraint=eastwest;whiteSpace=wrap;html=1;" parent="1qwFlzTLrPcSKQkNcB_V-45" vertex="1">
          <mxGeometry y="176" width="300" height="26" as="geometry" />
        </mxCell>
        <mxCell id="1qwFlzTLrPcSKQkNcB_V-53" value="+ getNumberOfWins(void): int" style="text;strokeColor=none;fillColor=none;align=left;verticalAlign=top;spacingLeft=4;spacingRight=4;overflow=hidden;rotatable=0;points=[[0,0.5],[1,0.5]];portConstraint=eastwest;whiteSpace=wrap;html=1;" parent="1qwFlzTLrPcSKQkNcB_V-45" vertex="1">
          <mxGeometry y="202" width="300" height="26" as="geometry" />
        </mxCell>
        <mxCell id="1qwFlzTLrPcSKQkNcB_V-54" value="+ getNumberOfLosses(void): int" style="text;strokeColor=none;fillColor=none;align=left;verticalAlign=top;spacingLeft=4;spacingRight=4;overflow=hidden;rotatable=0;points=[[0,0.5],[1,0.5]];portConstraint=eastwest;whiteSpace=wrap;html=1;" parent="1qwFlzTLrPcSKQkNcB_V-45" vertex="1">
          <mxGeometry y="228" width="300" height="26" as="geometry" />
        </mxCell>
        <mxCell id="1qwFlzTLrPcSKQkNcB_V-55" value="+ getNumberOfDraws(void): int" style="text;strokeColor=none;fillColor=none;align=left;verticalAlign=top;spacingLeft=4;spacingRight=4;overflow=hidden;rotatable=0;points=[[0,0.5],[1,0.5]];portConstraint=eastwest;whiteSpace=wrap;html=1;" parent="1qwFlzTLrPcSKQkNcB_V-45" vertex="1">
          <mxGeometry y="254" width="300" height="26" as="geometry" />
        </mxCell>
      </root>
    </mxGraphModel>
  </diagram>
</mxfile>
